<svg xmlns="http://www.w3.org/2000/svg" viewBox="0 0 111.74 28.57"><defs><style>.cls-1,.cls-2{isolation:isolate;}.cls-2{font-size:22px;font-family:Nunito-Bold, Nunito;font-weight:700;}.cls-2,.cls-4{fill:#494e6a;}.cls-3{fill:#ee7f3e;}.cls-5{fill:#c9ce2c;}</style></defs><g id="Layer_2" data-name="Layer 2"><g id="Layer_1-2" data-name="Layer 1"><g id="Group_152" data-name="Group 152"><g id="Pimec" class="cls-1"><text class="cls-2" transform="translate(50.01 21)">Pimec</text></g><g id="Layer_2-2" data-name="Layer 2"><g id="Background_copy_2_Image" data-name="Background copy 2 Image"><path id="Path_8" data-name="Path 8" class="cls-3" d="M39.84,6.28c-2,3.36-5.55,5.34-9.17,3.67C29.14,9.25,28,6.68,28.08,5c.16-2,1.33-2.93,2.91-4,2.52-1.66,4.55-1.22,6.72.42A2.76,2.76,0,0,1,38.9,3.6a1.32,1.32,0,0,0,.58,1.12A1.15,1.15,0,0,1,39.84,6.28Z"/><path id="Path_9" data-name="Path 9" class="cls-4" d="M3,28.57C2.26,28,1.13,28.23.49,27.18a2.87,2.87,0,0,1,.24-3.51c.8-.81,2.15-.63,3.63,0,.92.43,1.15,1.88.94,3s-1.09,1.51-2,1.82Z"/><path id="Path_10" data-name="Path 10" class="cls-5" d="M5.53,14.66C5,10.75,7,8.51,9.81,7a8.59,8.59,0,0,1,5.63-.84c1.5.29,3.12.19,4.49,1.15.57.4,1.19-.11,1.72-.42,2.33-1.36,4.16-1,5.69,1.22a15.93,15.93,0,0,1,1.27,2.05c1.27,2.56.33,5-.25,7.48-.74,3.24-3.33,4.32-5.9,5.48a17.07,17.07,0,0,1-4.52,1.77,13.83,13.83,0,0,1-5.09,0c-4-1-5.81-4.2-7.27-7.59A6.33,6.33,0,0,1,5.53,14.66Zm14.22,3.62a1.84,1.84,0,0,0,1.65-.61A3.31,3.31,0,0,0,21.25,13a2.79,2.79,0,0,0-.47-.36,6.49,6.49,0,0,1-1.65-1.57,2.42,2.42,0,0,0-3.21-1.17h0c-2.32.72-3.31,2.23-2.62,4S17.68,18.27,19.75,18.28Z"/></g></g></g></g></g></svg>