<svg xmlns="http://www.w3.org/2000/svg" viewBox="0 0 176 112"><defs><style>.cls-1{fill:#fff;}.cls-2,.cls-3{isolation:isolate;}.cls-3{font-size:22px;font-family:Nunito-Bold, Nunito;font-weight:700;}.cls-3,.cls-5{fill:#494e6a;}.cls-4{fill:#ee7f3e;}.cls-6{fill:#c9ce2c;}</style></defs><g id="Layer_2" data-name="Layer 2"><g id="Layer_1-2" data-name="Layer 1"><g id="Group_152" data-name="Group 152"><rect id="Rectangle_92-2" data-name="Rectangle 92-2" class="cls-1" width="176" height="112" rx="12"/><g id="Pimec" class="cls-2"><text class="cls-3" transform="translate(82 63)">Pimec</text></g><g id="Layer_2-2" data-name="Layer 2"><g id="Background_copy_2_Image" data-name="Background copy 2 Image"><path id="Path_8" data-name="Path 8" class="cls-4" d="M71.84,48.28c-2,3.36-5.56,5.34-9.18,3.67-1.53-.7-2.72-3.27-2.58-4.93.16-2,1.32-2.93,2.9-4,2.52-1.66,4.55-1.22,6.73.42a2.75,2.75,0,0,1,1.18,2.13,1.32,1.32,0,0,0,.58,1.12A1.17,1.17,0,0,1,71.84,48.28Z"/><path id="Path_9" data-name="Path 9" class="cls-5" d="M35,70.57c-.74-.61-1.87-.34-2.51-1.39a2.87,2.87,0,0,1,.24-3.51c.8-.81,2.16-.63,3.63,0,.92.43,1.15,1.88.94,3s-1.09,1.51-2,1.82Z"/><path id="Path_10" data-name="Path 10" class="cls-6" d="M37.52,56.66C37,52.75,39,50.51,41.81,49a8.56,8.56,0,0,1,5.62-.84c1.5.29,3.13.19,4.49,1.15.58.4,1.19-.11,1.72-.42,2.33-1.36,4.17-1,5.69,1.22a15.93,15.93,0,0,1,1.27,2c1.28,2.56.33,5-.24,7.48-.74,3.24-3.33,4.32-5.9,5.48a17.14,17.14,0,0,1-4.53,1.77,13.83,13.83,0,0,1-5.09,0c-4-1-5.81-4.2-7.27-7.6A6.45,6.45,0,0,1,37.52,56.66Zm14.22,3.62a1.86,1.86,0,0,0,1.66-.61A3.33,3.33,0,0,0,53.25,55a3.25,3.25,0,0,0-.47-.36,6.53,6.53,0,0,1-1.66-1.57,2.42,2.42,0,0,0-3.21-1.17h0c-2.32.72-3.32,2.23-2.63,4S49.68,60.27,51.74,60.28Z"/></g></g></g></g></g></svg>