<?xml version="1.0" encoding="iso-8859-1"?>
<!-- Generator: Adobe Illustrator 16.0.0, SVG Export Plug-In . SVG Version: 6.00 Build 0)  -->
<!DOCTYPE svg PUBLIC "-//W3C//DTD SVG 1.1//EN" "http://www.w3.org/Graphics/SVG/1.1/DTD/svg11.dtd">
<svg version="1.1" id="Capa_1" xmlns="http://www.w3.org/2000/svg" xmlns:xlink="http://www.w3.org/1999/xlink" x="0px" y="0px"
	 width="595.053px" height="595.053px" viewBox="0 0 595.053 595.053" style="enable-background:new 0 0 595.053 595.053;"
	 xml:space="preserve">
<g>
	<path d="M297.526,563.252c-120.434,0-218.061-97.638-218.061-218.048c0-120.438,97.619-218.066,218.061-218.066
		c120.406,0,218.07,97.619,218.07,218.066C515.588,465.615,417.933,563.252,297.526,563.252L297.526,563.252z M297.526,95.329
		c-137.992,0-249.862,111.861-249.862,249.875c0,137.974,111.87,249.849,249.862,249.849c137.996,0,249.862-111.875,249.862-249.849
		C547.389,207.19,435.522,95.329,297.526,95.329L297.526,95.329z"/>
	<path d="M358.202,0h-121.36c-9.427,0-17.136,7.564-17.136,17.136v14.142c0,9.567,7.709,17.272,17.136,17.272h5.997v15.023
		c0.282,3.993,2.181,11.612,12.947,10.29c0,0,0.009,0,0.027,0c16.418-2.485,46.911-5.342,81.819-0.195
		c0.054,0.009,0.072,0,0.146,0.009c12.029,1.395,14.137-6.941,14.428-11.275V48.537h6.006c9.44,0,17.136-7.7,17.136-17.268V17.126
		C375.338,7.564,367.633,0,358.202,0L358.202,0z"/>
	<path d="M487.222,147.627c0,0,10.34,9.645,18.989-2.726c0-0.014,0-0.014,0-0.014l10.395-14.874
		c4.434-6.401-1.317-10.83-1.89-11.267l-77.03-53.825l0,0c-4.743-3.293-7.887-1.294-9.559,0.568l-1.354,1.981l-11.285,16.132
		c0,0-7.214,11.094,2.726,16.218c0.019,0.009,0.019,0.009,0.019,0.018c14.701,7.173,42.395,22.628,68.953,47.815L487.222,147.627
		L487.222,147.627z"/>
	<path d="M475.374,328.023c-15.683-127.466-113.356-155.083-156.95-160.925c-0.091-0.009-0.2-0.009-0.291-0.036
		c-0.663-0.095-1.254-0.15-1.881-0.223c-17.108-2.867-18.644,10.113-18.726,14.115v146.251c0.082,3.906,1.563,17.626,18.018,17.917
		c23.796-0.072,71.724-0.146,144.384,0.046C473.502,345.013,475.428,334.356,475.374,328.023L475.374,328.023z"/>
</g>
<g>
</g>
<g>
</g>
<g>
</g>
<g>
</g>
<g>
</g>
<g>
</g>
<g>
</g>
<g>
</g>
<g>
</g>
<g>
</g>
<g>
</g>
<g>
</g>
<g>
</g>
<g>
</g>
<g>
</g>
</svg>
